<svg xmlns="http://www.w3.org/2000/svg" xmlns:xlink="http://www.w3.org/1999/xlink" width="40" zoomAndPan="magnify" viewBox="0 0 30 30.000001" height="40" preserveAspectRatio="xMidYMid meet" version="1.0"><defs><clipPath id="dbc5552f74"><path d="M 2.90625 3.347656 L 26.859375 3.347656 L 26.859375 25.847656 L 2.90625 25.847656 Z M 2.90625 3.347656 " clip-rule="nonzero"/></clipPath></defs><g clip-path="url(#dbc5552f74)"><path fill="#94bb10" d="M 15.910156 3.347656 C 9.746094 3.347656 4.746094 8.34375 4.746094 14.507812 C 4.746094 15.878906 4.988281 17.199219 5.476562 18.480469 L 2.992188 23.136719 C 2.914062 23.285156 2.921875 23.425781 3.019531 23.5625 C 3.117188 23.695312 3.246094 23.75 3.410156 23.722656 L 8.511719 22.867188 C 9.53125 23.773438 10.675781 24.464844 11.953125 24.949219 C 13.226562 25.433594 14.546875 25.671875 15.910156 25.671875 C 22.074219 25.671875 27.074219 20.671875 27.074219 14.507812 C 27.074219 8.347656 22.070312 3.347656 15.910156 3.347656 Z M 15.945312 22.761719 C 14.855469 22.765625 13.804688 22.5625 12.796875 22.152344 C 11.789062 21.742188 10.898438 21.15625 10.121094 20.390625 L 7.066406 20.941406 C 6.90625 20.96875 6.777344 20.914062 6.679688 20.785156 C 6.582031 20.652344 6.566406 20.511719 6.640625 20.363281 L 8.183594 17.410156 C 7.820312 16.445312 7.644531 15.445312 7.660156 14.414062 C 7.710938 9.882812 11.378906 6.257812 15.910156 6.257812 C 20.46875 6.257812 24.164062 9.953125 24.164062 14.507812 C 24.164062 19.0625 20.496094 22.742188 15.945312 22.761719 Z M 15.945312 22.761719 " fill-opacity="1" fill-rule="nonzero"/></g><path fill="#94bb10" d="M 14.746094 11.726562 L 14.382812 10.207031 C 14.34375 10.03125 14.265625 9.871094 14.15625 9.726562 C 14.046875 9.582031 13.914062 9.46875 13.753906 9.382812 C 13.59375 9.296875 13.425781 9.246094 13.246094 9.234375 C 13.066406 9.21875 12.890625 9.242188 12.722656 9.304688 L 11.890625 9.605469 C 11.613281 9.703125 11.394531 9.882812 11.238281 10.132812 C 11.085938 10.386719 11.023438 10.660156 11.0625 10.953125 C 11.351562 13.304688 12.683594 18.996094 18.8125 20.246094 C 19.0625 20.296875 19.304688 20.277344 19.539062 20.183594 C 19.777344 20.085938 19.964844 19.9375 20.109375 19.726562 L 20.585938 19.039062 C 20.683594 18.898438 20.75 18.75 20.785156 18.585938 C 20.820312 18.421875 20.820312 18.253906 20.792969 18.089844 C 20.761719 17.925781 20.703125 17.769531 20.609375 17.628906 C 20.519531 17.488281 20.40625 17.371094 20.265625 17.273438 C 20.261719 17.273438 20.261719 17.269531 20.257812 17.269531 L 19.210938 16.554688 C 18.976562 16.398438 18.71875 16.324219 18.4375 16.335938 C 18.15625 16.351562 17.90625 16.445312 17.691406 16.625 C 17.472656 16.804688 17.226562 16.902344 16.945312 16.914062 C 16.667969 16.929688 16.410156 16.859375 16.175781 16.703125 C 15.539062 16.273438 14.675781 15.558594 14.117188 14.574219 C 13.988281 14.347656 13.933594 14.101562 13.953125 13.84375 C 13.972656 13.582031 14.066406 13.351562 14.230469 13.148438 L 14.5 12.8125 C 14.757812 12.492188 14.839844 12.128906 14.746094 11.726562 Z M 14.746094 11.726562 " fill-opacity="1" fill-rule="nonzero"/></svg>